<svg xmlns="http://www.w3.org/2000/svg" width="512" height="512" viewBox="0 0 512 512" version="1.1"><path d="M 100 186.017 C 86.076 188.438, 76.208 195.672, 71.979 206.559 C 70.169 211.219, 69.660 214.548, 69.619 222 C 69.495 244.762, 78.541 253.401, 110.493 261.037 C 132.715 266.348, 137.654 268.825, 141.087 276.384 C 144.625 284.176, 142.979 297.405, 137.593 304.467 C 136.176 306.325, 132.506 309.073, 129.438 310.574 C 124.167 313.153, 123.132 313.297, 110.679 313.181 C 103.431 313.113, 91.875 312.413, 85 311.626 C 78.125 310.839, 72.389 310.300, 72.252 310.428 C 72.116 310.557, 71.720 313.389, 71.371 316.723 L 70.738 322.783 73.619 323.380 C 82.302 325.178, 101.582 326.998, 111.801 326.985 C 123.789 326.970, 133.504 325.342, 139.207 322.393 C 145.007 319.394, 151.637 312.200, 154.558 305.734 C 156.992 300.350, 157.433 297.932, 157.798 288 C 158.408 271.392, 156.204 265.190, 147.271 258.376 C 141.789 254.195, 134.832 251.624, 116.416 246.975 C 94.137 241.350, 88.497 238.053, 86.044 229.219 C 82.268 215.622, 88.047 204.198, 100.614 200.416 C 106.721 198.578, 123.742 198.601, 140.490 200.470 C 147.635 201.267, 153.765 201.600, 154.113 201.210 C 154.462 200.819, 154.996 197.913, 155.301 194.751 C 155.956 187.959, 157.522 188.704, 138 186.516 C 123.769 184.920, 107.535 184.708, 100 186.017 M 217.813 186.519 C 208.325 188.408, 202.792 191.137, 196.622 196.973 C 190.158 203.087, 185.909 211.251, 182.777 223.578 C 180.732 231.627, 180.511 234.849, 180.511 256.500 C 180.511 278.013, 180.741 281.405, 182.733 289.234 C 188.313 311.166, 199.011 322.401, 217.794 326.054 C 225.987 327.647, 252.805 326.790, 267.250 324.473 L 278 322.749 278 288.875 L 278 255 258.954 255 L 239.909 255 240.204 261.750 L 240.500 268.500 251.750 268.783 L 263 269.066 263 289.908 L 263 310.750 259.898 311.370 C 252.641 312.822, 233.045 314.130, 227.614 313.525 C 209.089 311.463, 200.589 301.964, 196.964 279.277 C 196.389 275.678, 195.923 265.255, 195.928 256.116 C 195.957 205.469, 207.638 194.926, 257.500 200.541 C 266.300 201.532, 274.400 202.378, 275.500 202.421 C 277.261 202.491, 277.535 201.766, 277.795 196.351 L 278.090 190.201 268.795 188.606 C 247.071 184.879, 229.638 184.165, 217.813 186.519 M 332.952 191.250 C 332.333 193.588, 324.031 223.870, 314.504 258.544 C 304.977 293.218, 297.029 322.468, 296.841 323.544 C 296.542 325.259, 297.172 325.538, 301.947 325.809 C 311.625 326.358, 311.007 327.137, 316.448 307.533 L 321.314 290 350.974 290 L 380.635 290 385.567 307.750 L 390.500 325.500 397.750 325.794 C 404.082 326.050, 405 325.868, 405 324.349 C 405 323.393, 403 315.386, 400.556 306.555 C 389.884 268, 368 187.979, 368 187.512 C 368 187.230, 360.367 187, 351.039 187 L 334.077 187 332.952 191.250 M 428 256.544 L 428 326.088 435.250 325.794 L 442.500 325.500 442.757 256.250 L 443.014 187 435.507 187 L 428 187 428 256.544 M 345.500 201.250 C 344.868 203.055, 325 275.108, 325 275.593 C 325 275.817, 336.730 276, 351.067 276 C 375.428 276, 377.100 275.885, 376.607 274.250 C 376.317 273.288, 371.995 257.650, 367.003 239.500 C 354.778 195.048, 356.798 200, 350.891 200 C 347.828 200, 345.770 200.477, 345.500 201.250" stroke="none" fill="#f8f8f8" fill-rule="evenodd"/><path d="M 232.500 0.598 C 230.850 0.827, 224.458 1.705, 218.296 2.551 C 175.990 8.353, 130.550 28.146, 95.500 56.037 C 52.745 90.059, 20.273 141.124, 7.004 195.203 C 1.547 217.444, 0.524 227.049, 0.524 256 C 0.524 284.951, 1.547 294.556, 7.004 316.797 C 18.356 363.065, 43.629 407.171, 77.626 440.049 C 115.751 476.918, 164.593 501.108, 218.203 509.672 C 227.029 511.082, 235.296 511.476, 256 511.476 C 284.951 511.476, 294.556 510.453, 316.797 504.996 C 351.939 496.374, 388.009 478.635, 416.500 455.963 C 466.855 415.894, 503.251 350.930, 510.042 289 C 510.675 283.225, 511.599 277.719, 512.096 276.764 C 513.374 274.309, 513.281 233.708, 512 234.500 C 511.405 234.868, 511 233.675, 511 231.552 C 511 225.927, 508.187 208.523, 505.334 196.500 C 496.574 159.577, 476.779 120.257, 452.222 91 C 412.856 44.101, 356.541 12.479, 294.500 2.437 C 284.968 0.894, 239.986 -0.440, 232.500 0.598 M 100 186.017 C 86.076 188.438, 76.208 195.672, 71.979 206.559 C 70.169 211.219, 69.660 214.548, 69.619 222 C 69.495 244.762, 78.541 253.401, 110.493 261.037 C 132.715 266.348, 137.654 268.825, 141.087 276.384 C 144.625 284.176, 142.979 297.405, 137.593 304.467 C 136.176 306.325, 132.506 309.073, 129.438 310.574 C 124.167 313.153, 123.132 313.297, 110.679 313.181 C 103.431 313.113, 91.875 312.413, 85 311.626 C 78.125 310.839, 72.389 310.300, 72.252 310.428 C 72.116 310.557, 71.720 313.389, 71.371 316.723 L 70.738 322.783 73.619 323.380 C 82.302 325.178, 101.582 326.998, 111.801 326.985 C 123.789 326.970, 133.504 325.342, 139.207 322.393 C 145.007 319.394, 151.637 312.200, 154.558 305.734 C 156.992 300.350, 157.433 297.932, 157.798 288 C 158.408 271.392, 156.204 265.190, 147.271 258.376 C 141.789 254.195, 134.832 251.624, 116.416 246.975 C 94.137 241.350, 88.497 238.053, 86.044 229.219 C 82.268 215.622, 88.047 204.198, 100.614 200.416 C 106.721 198.578, 123.742 198.601, 140.490 200.470 C 147.635 201.267, 153.765 201.600, 154.113 201.210 C 154.462 200.819, 154.996 197.913, 155.301 194.751 C 155.956 187.959, 157.522 188.704, 138 186.516 C 123.769 184.920, 107.535 184.708, 100 186.017 M 217.813 186.519 C 208.325 188.408, 202.792 191.137, 196.622 196.973 C 190.158 203.087, 185.909 211.251, 182.777 223.578 C 180.732 231.627, 180.511 234.849, 180.511 256.500 C 180.511 278.013, 180.741 281.405, 182.733 289.234 C 188.313 311.166, 199.011 322.401, 217.794 326.054 C 225.987 327.647, 252.805 326.790, 267.250 324.473 L 278 322.749 278 288.875 L 278 255 258.954 255 L 239.909 255 240.204 261.750 L 240.500 268.500 251.750 268.783 L 263 269.066 263 289.908 L 263 310.750 259.898 311.370 C 252.641 312.822, 233.045 314.130, 227.614 313.525 C 209.089 311.463, 200.589 301.964, 196.964 279.277 C 196.389 275.678, 195.923 265.255, 195.928 256.116 C 195.957 205.469, 207.638 194.926, 257.500 200.541 C 266.300 201.532, 274.400 202.378, 275.500 202.421 C 277.261 202.491, 277.535 201.766, 277.795 196.351 L 278.090 190.201 268.795 188.606 C 247.071 184.879, 229.638 184.165, 217.813 186.519 M 332.952 191.250 C 332.333 193.588, 324.031 223.870, 314.504 258.544 C 304.977 293.218, 297.029 322.468, 296.841 323.544 C 296.542 325.259, 297.172 325.538, 301.947 325.809 C 311.625 326.358, 311.007 327.137, 316.448 307.533 L 321.314 290 350.974 290 L 380.635 290 385.567 307.750 L 390.500 325.500 397.750 325.794 C 404.082 326.050, 405 325.868, 405 324.349 C 405 323.393, 403 315.386, 400.556 306.555 C 389.884 268, 368 187.979, 368 187.512 C 368 187.230, 360.367 187, 351.039 187 L 334.077 187 332.952 191.250 M 428 256.544 L 428 326.088 435.250 325.794 L 442.500 325.500 442.757 256.250 L 443.014 187 435.507 187 L 428 187 428 256.544 M 345.500 201.250 C 344.868 203.055, 325 275.108, 325 275.593 C 325 275.817, 336.730 276, 351.067 276 C 375.428 276, 377.100 275.885, 376.607 274.250 C 376.317 273.288, 371.995 257.650, 367.003 239.500 C 354.778 195.048, 356.798 200, 350.891 200 C 347.828 200, 345.770 200.477, 345.500 201.250 M 0.425 256 C 0.425 267.825, 0.569 272.663, 0.746 266.750 C 0.923 260.837, 0.923 251.162, 0.746 245.250 C 0.569 239.338, 0.425 244.175, 0.425 256" stroke="none" fill="#242424" fill-rule="evenodd"/></svg>